<svg width="96" height="96" viewBox="0 0 96 96" fill="none" xmlns="http://www.w3.org/2000/svg">
<g id="Group 1">
<circle id="Ellipse 1" cx="48" cy="48" r="48" fill="#C1DCDC"/>
<path id="Vector" d="M48.465 30.5906C48.1665 30.471 47.8335 30.471 47.535 30.5906L32.615 36.5581L38.625 38.9606L54.01 32.8081L48.465 30.5906ZM57.375 34.1556L41.99 40.3081L48 42.7106L63.385 36.5581L57.375 34.1556ZM65.5 38.4056L49.25 44.9056V64.7106L65.5 58.2106V38.4056ZM46.75 64.7131V44.9031L30.5 38.4056V58.2131L46.75 64.7131ZM46.6075 28.2681C47.5014 27.9106 48.4986 27.9106 49.3925 28.2681L67.215 35.3981C67.4467 35.491 67.6453 35.6511 67.7852 35.8579C67.9251 36.0646 67.9999 36.3085 68 36.5581V58.2131C67.9997 58.7127 67.8497 59.2007 67.5694 59.6142C67.2891 60.0277 66.8914 60.3478 66.4275 60.5331L48.465 67.7181C48.1665 67.8377 47.8335 67.8377 47.535 67.7181L29.575 60.5331C29.1106 60.3482 28.7124 60.0283 28.4316 59.6147C28.1509 59.2012 28.0005 58.713 28 58.2131V36.5581C28.0001 36.3085 28.0749 36.0646 28.2148 35.8579C28.3547 35.6511 28.5533 35.491 28.785 35.3981L46.6075 28.2681Z" fill="#1E1E1E"/>
</g>
</svg>
