<svg width="96" height="96" viewBox="0 0 96 96" fill="none" xmlns="http://www.w3.org/2000/svg">
<g id="Group 1">
<circle id="Ellipse 1" cx="48" cy="48" r="48" fill="#C1DCDC"/>
<path id="Vector" d="M61.6009 51.0771H46.2604L46.7304 50.6252L50.7425 46.7676C52.363 47.5522 54.1485 47.9706 55.9627 47.9906C57.7888 47.9953 59.5808 47.5148 61.1409 46.6022C65.885 43.8407 68.4271 37.4485 67.9411 29.5024C67.9182 29.126 67.7524 28.7708 67.4751 28.5043C67.1979 28.2377 66.8285 28.0783 66.437 28.0563C58.1728 27.5909 51.5245 30.0332 48.6525 34.5946C46.7804 37.5658 46.7324 41.1542 48.4785 44.5945L45.6004 47.3618L43.1583 45.0137C44.3583 42.4657 44.2723 39.8215 42.8803 37.6138C40.7062 34.1543 35.7221 32.3101 29.5459 32.6581C29.1551 32.6805 28.7864 32.8399 28.5096 33.106C28.2328 33.3722 28.0671 33.7266 28.0438 34.1023C27.6798 40.0388 29.5999 44.8311 33.2 46.9233C34.4044 47.6304 35.7889 48.0032 37.2001 48.0002C38.4804 47.988 39.7432 47.7133 40.9042 47.1945L43.3363 49.5387L41.7362 51.0771H32.8C32.3756 51.0771 31.9686 51.2392 31.6686 51.5277C31.3685 51.8162 31.1999 52.2075 31.1999 52.6156C31.1999 53.0236 31.3685 53.4149 31.6686 53.7034C31.9686 53.9919 32.3756 54.154 32.8 54.154H34.718L37.3601 65.5904C37.515 66.2753 37.9098 66.8884 38.4784 67.327C39.0471 67.7656 39.7552 68.0032 40.4842 68H53.9186C54.6476 68.0032 55.3557 67.7656 55.9244 67.327C56.4931 66.8884 56.8879 66.2753 57.0427 65.5904L59.6848 54.154H61.6009C62.0252 54.154 62.4322 53.9919 62.7323 53.7034C63.0323 53.4149 63.2009 53.0236 63.2009 52.6156C63.2009 52.2075 63.0323 51.8162 62.7323 51.5277C62.4322 51.2392 62.0252 51.0771 61.6009 51.0771ZM51.4005 36.1889C53.4926 32.8697 58.4488 30.9966 64.801 31.0793C64.883 37.1965 62.9389 41.9599 59.4868 43.9638C57.1847 45.3099 54.4066 45.2214 51.6306 43.7368C50.0845 41.0773 50.0005 38.4023 51.4005 36.1889ZM40.0222 44.1753C38.1821 45.1234 36.3601 45.1676 34.856 44.2907C32.556 42.9503 31.2299 39.7907 31.1999 35.6927C35.4621 35.7216 38.7502 36.9965 40.1422 39.208C41.0542 40.6542 41.0002 42.4061 40.0222 44.1753ZM53.9186 64.9231H40.4842L38.0001 54.154H56.4007L53.9186 64.9231Z" fill="#1E1E1E"/>
</g>
</svg>
