<svg width="96" height="96" viewBox="0 0 96 96" fill="none" xmlns="http://www.w3.org/2000/svg">
<circle cx="48" cy="48" r="48" fill="#C1DCDC"/>
<g clip-path="url(#clip0_10_115)">
<path d="M37.1348 31.3199C36.9872 31.13 36.8009 30.9738 36.5883 30.8614C36.3757 30.7491 36.1416 30.6833 35.9016 30.6684C35.6616 30.6535 35.4211 30.6899 35.1963 30.775C34.9714 30.8602 34.7672 30.9922 34.5973 31.1624L32.0123 33.7499C30.8048 34.9599 30.3598 36.6724 30.8873 38.1749C33.0766 44.3939 36.638 50.0401 41.3073 54.6949C45.9621 59.3641 51.6083 62.9255 57.8273 65.1149C59.3298 65.6424 61.0423 65.1974 62.2523 63.9899L64.8373 61.4049C65.0074 61.235 65.1395 61.0308 65.2246 60.8059C65.3098 60.581 65.3461 60.3406 65.3312 60.1006C65.3163 59.8606 65.2505 59.6265 65.1382 59.4139C65.0259 59.2013 64.8696 59.015 64.6798 58.8674L58.9123 54.3824C58.7094 54.2251 58.4735 54.1159 58.2224 54.063C57.9712 54.0102 57.7113 54.0151 57.4623 54.0774L51.9873 55.4449C51.2565 55.6275 50.4908 55.6178 49.7649 55.4168C49.0389 55.2157 48.3774 54.83 47.8448 54.2974L41.7048 48.1549C41.1717 47.6225 40.7856 46.9611 40.5841 46.2351C40.3825 45.5092 40.3724 44.7434 40.5548 44.0124L41.9248 38.5374C41.987 38.2884 41.9919 38.0285 41.9391 37.7773C41.8863 37.5261 41.7771 37.2902 41.6198 37.0874L37.1348 31.3199ZM32.7098 29.2774C33.1473 28.8398 33.6728 28.5002 34.2516 28.2813C34.8304 28.0624 35.4491 27.9691 36.0667 28.0076C36.6843 28.0462 37.2867 28.2156 37.8337 28.5048C38.3808 28.794 38.8601 29.1963 39.2398 29.6849L43.7248 35.4499C44.5473 36.5074 44.8373 37.8849 44.5123 39.1849L43.1448 44.6599C43.0741 44.9435 43.0779 45.2405 43.1559 45.5222C43.2338 45.8038 43.3833 46.0605 43.5898 46.2674L49.7323 52.4099C49.9394 52.6168 50.1965 52.7665 50.4787 52.8445C50.7608 52.9225 51.0583 52.926 51.3423 52.8549L56.8148 51.4874C57.4563 51.327 58.1259 51.3145 58.773 51.4509C59.42 51.5874 60.0276 51.8691 60.5498 52.2749L66.3148 56.7599C68.3873 58.3724 68.5773 61.4349 66.7223 63.2874L64.1373 65.8724C62.2873 67.7224 59.5223 68.5349 56.9448 67.6274C50.3477 65.3062 44.358 61.5295 39.4198 56.5774C34.468 51.6399 30.6913 45.651 28.3698 39.0549C27.4648 36.4799 28.2773 33.7124 30.1273 31.8624L32.7123 29.2774H32.7098ZM55.4998 29.2499C55.4998 28.9184 55.6315 28.6004 55.8659 28.366C56.1003 28.1316 56.4183 27.9999 56.7498 27.9999H66.7498C67.0813 27.9999 67.3992 28.1316 67.6337 28.366C67.8681 28.6004 67.9998 28.9184 67.9998 29.2499V39.2499C67.9998 39.5814 67.8681 39.8993 67.6337 40.1338C67.3992 40.3682 67.0813 40.4999 66.7498 40.4999C66.4183 40.4999 66.1003 40.3682 65.8659 40.1338C65.6315 39.8993 65.4998 39.5814 65.4998 39.2499V32.2674L55.1348 42.6349C54.9001 42.8696 54.5817 43.0015 54.2498 43.0015C53.9178 43.0015 53.5995 42.8696 53.3648 42.6349C53.1301 42.4002 52.9982 42.0818 52.9982 41.7499C52.9982 41.4179 53.1301 41.0996 53.3648 40.8649L63.7323 30.4999H56.7498C56.4183 30.4999 56.1003 30.3682 55.8659 30.1338C55.6315 29.8993 55.4998 29.5814 55.4998 29.2499Z" fill="#1E1E1E"/>
</g>
<defs>
<clipPath id="clip0_10_115">
<rect width="40" height="40" fill="white" transform="translate(28 28)"/>
</clipPath>
</defs>
</svg>
