<svg width="48" height="48" viewBox="0 0 48 48" fill="none" xmlns="http://www.w3.org/2000/svg">
<g id="Group 13">
<circle id="Ellipse 3" cx="24" cy="24" r="23.5" stroke="#1E1E1E" stroke-opacity="0.5"/>
<path id="Vector" d="M20.2825 32.2509C27.83 32.2509 31.9587 25.9971 31.9587 20.5834C31.9587 20.4084 31.9587 20.2309 31.9513 20.0559C32.7551 19.474 33.4488 18.7536 34 17.9284C33.2491 18.2594 32.4535 18.4776 31.6388 18.5759C32.4969 18.0629 33.1397 17.2558 33.4475 16.3046C32.6412 16.7823 31.7588 17.1176 30.8387 17.2959C30.2202 16.6371 29.4018 16.2008 28.5101 16.0543C27.6185 15.9079 26.7034 16.0595 25.9067 16.4858C25.1099 16.9121 24.476 17.5892 24.1031 18.4122C23.7301 19.2352 23.639 20.1583 23.8438 21.0384C22.2122 20.9566 20.616 20.5327 19.1588 19.7943C17.7016 19.0559 16.4159 18.0194 15.385 16.7521C14.8617 17.656 14.702 18.7251 14.9383 19.7424C15.1746 20.7598 15.7893 21.649 16.6575 22.2296C16.0069 22.2075 15.3707 22.0328 14.8 21.7196V21.7759C14.8011 22.7227 15.1291 23.6401 15.7286 24.3731C16.3281 25.106 17.1622 25.6095 18.09 25.7984C17.7378 25.8954 17.374 25.9437 17.0087 25.9421C16.7512 25.9429 16.4942 25.919 16.2413 25.8709C16.5035 26.6859 17.0141 27.3986 17.7016 27.909C18.389 28.4194 19.2189 28.7019 20.075 28.7171C18.6207 29.8594 16.8243 30.4789 14.975 30.4759C14.6492 30.4772 14.3235 30.4585 14 30.4196C15.8769 31.6162 18.0566 32.2516 20.2825 32.2509Z" fill="#1E1E1E" fill-opacity="0.75"/>
</g>
</svg>
