<svg width="48" height="48" viewBox="0 0 48 48" fill="none" xmlns="http://www.w3.org/2000/svg">
<circle cx="24" cy="24" r="23.5" stroke="#1E1E1E" stroke-opacity="0.5"/>
<path d="M23.9998 15.6665C26.264 15.6665 26.5465 15.6748 27.4348 15.7165C28.3223 15.7582 28.9265 15.8973 29.4582 16.104C30.0082 16.3157 30.4715 16.6023 30.9348 17.0648C31.3586 17.4814 31.6865 17.9853 31.8957 18.5415C32.1015 19.0723 32.2415 19.6773 32.2832 20.5648C32.3223 21.4532 32.3332 21.7357 32.3332 23.9998C32.3332 26.264 32.3248 26.5465 32.2832 27.4348C32.2415 28.3223 32.1015 28.9265 31.8957 29.4582C31.6871 30.0147 31.3591 30.5187 30.9348 30.9348C30.5181 31.3584 30.0143 31.6863 29.4582 31.8957C28.9273 32.1015 28.3223 32.2415 27.4348 32.2832C26.5465 32.3223 26.264 32.3332 23.9998 32.3332C21.7357 32.3332 21.4532 32.3248 20.5648 32.2832C19.6773 32.2415 19.0732 32.1015 18.5415 31.8957C17.9851 31.6869 17.4811 31.359 17.0648 30.9348C16.641 30.5183 16.3131 30.0144 16.104 29.4582C15.8973 28.9273 15.7582 28.3223 15.7165 27.4348C15.6773 26.5465 15.6665 26.264 15.6665 23.9998C15.6665 21.7357 15.6748 21.4532 15.7165 20.5648C15.7582 19.6765 15.8973 19.0732 16.104 18.5415C16.3125 17.985 16.6405 17.4809 17.0648 17.0648C17.4812 16.6409 17.9852 16.3129 18.5415 16.104C19.0732 15.8973 19.6765 15.7582 20.5648 15.7165C21.4532 15.6773 21.7357 15.6665 23.9998 15.6665ZM23.9998 19.8332C22.8948 19.8332 21.835 20.2722 21.0536 21.0536C20.2722 21.835 19.8332 22.8948 19.8332 23.9998C19.8332 25.1049 20.2722 26.1647 21.0536 26.9461C21.835 27.7275 22.8948 28.1665 23.9998 28.1665C25.1049 28.1665 26.1647 27.7275 26.9461 26.9461C27.7275 26.1647 28.1665 25.1049 28.1665 23.9998C28.1665 22.8948 27.7275 21.835 26.9461 21.0536C26.1647 20.2722 25.1049 19.8332 23.9998 19.8332ZM29.4165 19.6248C29.4165 19.3486 29.3068 19.0836 29.1114 18.8883C28.9161 18.6929 28.6511 18.5832 28.3748 18.5832C28.0986 18.5832 27.8336 18.6929 27.6383 18.8883C27.4429 19.0836 27.3332 19.3486 27.3332 19.6248C27.3332 19.9011 27.4429 20.1661 27.6383 20.3614C27.8336 20.5568 28.0986 20.6665 28.3748 20.6665C28.6511 20.6665 28.9161 20.5568 29.1114 20.3614C29.3068 20.1661 29.4165 19.9011 29.4165 19.6248ZM23.9998 21.4998C24.6629 21.4998 25.2988 21.7632 25.7676 22.2321C26.2364 22.7009 26.4998 23.3368 26.4998 23.9998C26.4998 24.6629 26.2364 25.2988 25.7676 25.7676C25.2988 26.2364 24.6629 26.4998 23.9998 26.4998C23.3368 26.4998 22.7009 26.2364 22.2321 25.7676C21.7632 25.2988 21.4998 24.6629 21.4998 23.9998C21.4998 23.3368 21.7632 22.7009 22.2321 22.2321C22.7009 21.7632 23.3368 21.4998 23.9998 21.4998Z" fill="#1E1E1E" fill-opacity="0.75"/>
</svg>
