<svg width="106" height="16" viewBox="0 0 106 16" fill="none" xmlns="http://www.w3.org/2000/svg">
<path d="M10.12 8.958C10.498 9.048 10.822 9.264 11.056 9.57C11.272 9.858 11.416 10.218 11.416 10.614V14.628C10.606 14.952 9.598 15.33 8.5 15.33C8.32 15.33 8.14 15.312 7.96 15.294C7.924 15.294 2.938 14.79 2.938 7.986C2.938 3.846 5.188 0.479999 7.978 0.479999C9.22 0.479999 10.174 1.038 10.876 1.812C11.614 2.622 12.1 3.648 12.244 4.746C12.262 4.944 12.28 5.142 12.28 5.34C12.28 5.862 12.19 6.42 11.92 6.942C11.92 6.942 14.044 6.78 14.044 4.242C14.044 4.242 13.99 2.946 12.964 2.01C12.1 1.236 10.57 0.264 8.374 0.155999C8.248 0.155999 8.122 0.137999 7.996 0.137999C4.09 0.137999 0.778 3.09 0.364 7.104C0.328 7.392 0.31 7.698 0.31 7.986C0.31 12.306 3.748 15.816 7.978 15.816C8.716 15.816 9.454 15.708 10.12 15.51C10.696 15.33 11.272 15.258 11.866 15.258C12.298 15.258 12.748 15.294 13.198 15.402L14.044 15.6V10.614C14.044 9.84 14.566 9.138 15.34 8.958H10.12ZM26.2099 14.988C25.9759 14.7 25.8319 14.34 25.8319 13.944V12.27C25.8319 11.352 25.4719 10.524 24.8599 9.93C24.4819 9.534 23.9959 9.246 23.4379 9.084C23.3119 9.048 23.1859 9.03 23.0599 8.994C24.4639 8.562 26.6239 7.5 26.6239 4.782C26.6239 3.54 26.1379 2.406 25.3099 1.596C24.4999 0.786 23.3659 0.282 22.1239 0.282H15.6979C16.0759 0.372 16.3999 0.588 16.6339 0.893999C16.8679 1.182 16.9939 1.56 16.9939 1.938V13.944C16.9939 14.718 16.4539 15.42 15.6979 15.6H20.9179C20.5399 15.51 20.2159 15.294 19.9819 14.988C19.7659 14.7 19.6219 14.34 19.6219 13.944V12.432C19.6219 11.586 19.9459 10.812 20.4679 10.218C20.7379 9.93 21.0979 9.768 21.4759 9.768C21.7999 9.768 22.1419 9.894 22.3939 10.146C22.8079 10.578 23.2039 11.244 23.2039 12.27V13.566C23.2039 14.682 24.1219 15.6 25.2559 15.6H27.1279C26.7499 15.51 26.4259 15.294 26.2099 14.988ZM19.6219 0.606H20.4319C22.7359 0.606 23.9959 2.478 23.9959 4.782C23.9959 5.934 23.6179 7.068 22.7899 7.734C21.0259 9.138 20.2879 9.606 19.6219 10.866V0.606ZM34.1168 0.606C35.4308 0.606 36.7808 1.578 37.3748 2.856L36.7268 0.282H27.4928C27.8708 0.372 28.1948 0.588 28.4288 0.893999C28.6628 1.182 28.7888 1.56 28.7888 1.938V13.944C28.7888 14.736 28.2488 15.42 27.4928 15.6H36.7268L37.3748 13.026C36.7808 14.322 35.4308 15.276 34.1168 15.276H31.4168V11.928C31.4168 11.262 31.7228 10.632 32.2628 10.254C32.7848 9.858 33.3608 9.57 33.8648 9.39C34.0268 9.336 34.2068 9.3 34.3688 9.3C35.0168 9.3 35.6108 9.75 35.7548 10.416V7.284C35.5748 8.076 34.9808 8.688 34.2068 8.922C33.3788 9.174 32.2988 9.66 31.4168 10.542V0.606H34.1168ZM44.3649 0.606C45.6789 0.606 47.0289 1.578 47.6229 2.856L46.9749 0.282H37.7409C38.1189 0.372 38.4429 0.588 38.6769 0.893999C38.9109 1.182 39.0369 1.56 39.0369 1.938V13.944C39.0369 14.736 38.4969 15.42 37.7409 15.6H46.9749L47.6229 13.026C47.0289 14.322 45.6789 15.276 44.3649 15.276H41.6649V11.928C41.6649 11.262 41.9709 10.632 42.5109 10.254C43.0329 9.858 43.6089 9.57 44.1129 9.39C44.2749 9.336 44.4549 9.3 44.6169 9.3C45.2649 9.3 45.8589 9.75 46.0029 10.416V7.284C45.8229 8.076 45.2289 8.688 44.4549 8.922C43.6269 9.174 42.5469 9.66 41.6649 10.542V0.606H44.3649ZM58.6989 1.722C58.6989 1.056 59.1309 0.479999 59.7609 0.282H57.2949C57.9249 0.479999 58.3569 1.056 58.3569 1.722V13.89L51.4449 0.282H47.9889C48.3669 0.389999 48.6549 0.659999 48.8529 0.983999L48.9069 1.092C48.9969 1.29 49.0509 1.506 49.0509 1.722V14.16C49.0509 14.826 48.6189 15.402 47.9889 15.6H50.4369C49.8069 15.402 49.3749 14.826 49.3749 14.16V2.01L56.2869 15.6H59.7609C59.1309 15.402 58.6989 14.826 58.6989 14.16V1.722ZM70.5578 0.282L67.1378 10.884L63.5558 0.282H60.1178C60.4418 0.372 60.7118 0.569999 60.8918 0.821999C60.9638 0.911999 61.0178 1.002 61.0538 1.11L61.1618 1.398C61.1798 1.506 61.1978 1.614 61.1978 1.722V14.16C61.1978 14.826 60.7658 15.402 60.1178 15.6H62.5838C62.2598 15.51 62.0078 15.312 61.8098 15.06C61.6298 14.808 61.5218 14.502 61.5218 14.16V2.514L65.8598 15.6L70.5578 1.362V13.944C70.5578 14.736 70.0358 15.42 69.2618 15.6H74.4818C74.1038 15.51 73.7798 15.294 73.5458 14.988C73.3298 14.7 73.1858 14.34 73.1858 13.944V1.938C73.1858 1.164 73.7258 0.479999 74.4818 0.282H70.5578ZM74.8483 0.282C75.6223 0.479999 76.1443 1.164 76.1443 1.938V13.944C76.1443 14.736 75.6223 15.42 74.8483 15.6H80.0683C79.3123 15.42 78.7723 14.736 78.7723 13.944V1.938C78.7723 1.164 79.3123 0.479999 80.0683 0.282H74.8483ZM91.1305 1.722C91.1305 1.056 91.5625 0.479999 92.1925 0.282H89.7265C90.3565 0.479999 90.7885 1.056 90.7885 1.722V13.89L83.8765 0.282H80.4205C80.7985 0.389999 81.0865 0.659999 81.2845 0.983999L81.3385 1.092C81.4285 1.29 81.4825 1.506 81.4825 1.722V14.16C81.4825 14.826 81.0505 15.402 80.4205 15.6H82.8685C82.2385 15.402 81.8065 14.826 81.8065 14.16V2.01L88.7185 15.6H92.1925C91.5625 15.402 91.1305 14.826 91.1305 14.16V1.722ZM100.235 0.606C99.5335 0.389999 98.7955 0.282 98.0215 0.282H92.5495C92.9455 0.372 93.2515 0.588 93.4855 0.893999C93.7195 1.182 93.8455 1.56 93.8455 1.956V13.944C93.8455 14.736 93.3235 15.42 92.5495 15.6H98.0215C98.7955 15.6 99.5335 15.492 100.235 15.276C103.385 14.322 105.671 11.406 105.671 7.95C105.671 4.476 103.385 1.56 100.235 0.606ZM96.4735 15.276V0.606H98.0215C100.793 0.606 103.043 3.9 103.043 7.95C103.043 12 100.793 15.276 98.0215 15.276H96.4735Z" fill="black"/>
</svg>
